<?xml version="1.0" encoding="utf-8"?>
<!-- Generator: Adobe Illustrator 19.2.1, SVG Export Plug-In . SVG Version: 6.00 Build 0)  -->
<svg version="1.1" id="Layer_1" xmlns="http://www.w3.org/2000/svg" xmlns:xlink="http://www.w3.org/1999/xlink" x="0px" y="0px"
 viewBox="0 0 62 62" style="enable-background:new 0 0 62 62;" xml:space="preserve">
<metadata><?xpacket begin="﻿" id="W5M0MpCehiHzreSzNTczkc9d"?>
<x:xmpmeta xmlns:x="adobe:ns:meta/" x:xmptk="Adobe XMP Core 5.6-c145 79.163499, 2018/08/13-16:40:22        ">
   <rdf:RDF xmlns:rdf="http://www.w3.org/1999/02/22-rdf-syntax-ns#">
      <rdf:Description rdf:about=""/>
   </rdf:RDF>
</x:xmpmeta>
                                                                                                    
                                                                                                    
                                                                                                    
                                                                                                    
                                                                                                    
                                                                                                    
                                                                                                    
                                                                                                    
                                                                                                    
                                                                                                    
                                                                                                    
                                                                                                    
                                                                                                    
                                                                                                    
                                                                                                    
                                                                                                    
                                                                                                    
                                                                                                    
                                                                                                    
                                                                                                    
                           
<?xpacket end="w"?></metadata>
<style type="text/css">
.st0{fill:#e31b23;}
</style>
<path class="st0" d="M57.4,29.2c-2.3,0-4.2,1.9-4.2,4.2s1.9,4.2,4.2,4.2s4.2-1.9,4.2-4.2C61.7,31.1,59.7,29.2,57.4,29.2z M44.4,38.9
c-1,0.1-1.8-0.1-2.5-0.2c-0.3,0-0.5,0.5-0.7,0.5c-0.6-0.4-2.4-2.2-3.1-2.9s-3-3.5-3.9-3.8c-0.1-0.2-0.1-0.7-0.6-1.3
c-0.2-0.2-0.3-0.6-1-1.8c0.1-0.4,0.6-0.7,0.6-1.1c0-0.4,0.5-0.5,0.7-0.7c0.2-0.1,0.8-0.7,0.8-1.4s0.6-2,0.8-2.3
c0.1-0.1,0.2-0.7,0.4-0.9c0.2,0.5,0.6,0,0.7-0.1c0.1,0.2,0.3,0.2,0.6-0.5c0.2-0.7,0.6-1.7,0.7-1.9c0.4-0.2,2.5-0.4,3.2-1.6
c0.1-0.5,0.3-0.7,0.1-1.1c-0.2-0.4-1.2-1.7-1.3-2.1c0.1-0.4,0.2-1.1,0.1-1.3s-0.4-0.7-0.6-1.1c-0.2-0.4-0.9-1.6-1.3-2
c-0.4-0.3-0.6-0.5-0.9-0.7s-0.9-0.4-1.1-0.7s-1.8-1.1-2.9-0.8C33,9,32.8,8.9,32.6,8.9c-0.2-0.5-0.3-0.6-0.3-0.6
c0.2-0.2,0.3-0.9,0.2-1.4c0-0.4-0.2-0.9-0.6-0.5C31.8,6,32,4.3,31.6,3.7c-0.4-0.6-1.6-1.8-3.3-1.3c-1.6,0.5-2.4,1.7-2.4,2.4
s0,1.6-0.1,1.8c-0.2,0-0.3,0.6-0.2,0.8c0.1,0.2,0.2,0.6,0.2,0.8c-0.3-0.1-0.3-0.3-0.9-0.4c-0.6-0.1-2.3-0.2-2.7-0.1
c-0.3,0-1.3-0.4-1.5-0.4c-0.2-0.1-0.4,0.1-0.9,0.1s-2.6-0.3-3-0.4c-0.2,0.1-0.3,0.2-0.3,0.2c-0.1-0.1-1.1-0.6-1.7-0.7
c-0.2-0.1-0.3-0.3-0.7-0.3C13.5,6.1,13,6,11,6c-0.6,0-4,0-5.2-0.1C5.5,5.8,4.4,5.1,3.9,4.8c-0.4-0.3-0.6-0.1-1-0.2
c-0.3,0-1.2-0.1-1.5-0.1S0.9,4.6,0.6,4.7C0.4,4.8,0.5,5.1,0.9,5C0.7,5,0.4,5.1,0.4,5.2c0,0.1,0.1,0.2,0.4,0.2
c-0.1,0-0.2,0.2-0.2,0.3S0.7,5.8,1,5.8C1.2,5.8,1.7,6,1.9,6C1.7,6.1,1.3,6.4,1.2,6.5s0.1,0.3,0.3,0.1c0.3-0.1,0.9-0.4,1.1-0.2
C2.8,6.5,3,7.2,3.8,7.2C4.6,7.2,5,7,5.4,7.1C5.8,7.2,7.3,7.7,8,7.9c2.5,0.7,6.1,1.6,6.1,1.6s0.8,0.8,1.2,1c0.1,0.5,0.2,1.3,0.4,1.3
c0.2,0.1,1.1,0.3,1.6,0.6s1,0.5,1.1,0.7c0.2,0.2,0.6,0.1,1.1,0.2c0.5,0.1,0.6,0.4,0.8,0.6c0.2,0.2,1.3,0.3,2,0.8
c0,0.5-0.1,4.4-0.2,4.8c-0.1,0.4-0.3,1-0.3,1.3s0.1,1.1,0.2,1.6c-0.1,0.4-0.2,0.5-0.3,0.8c-0.1,0.3,0,1.2-0.2,1.7s-0.4,1.3-0.1,2.6
c0.4,1.3,0.1,2.6,0.9,3.6c0.1,0.8,0.4,3,0.4,3.5c-0.1,0.5,0.3,1,0.5,1.1c0,0.8,0.3,4.6,0.1,5.1c-0.2,0.5-0.8,1.2-1.1,1.6
c-0.4,0.1-1.7,1.1-2.4,1.9c-0.7,0.8-1.7,2.4-3,3.9c-0.8,0.9-3.7,4.6-4.2,5c-0.5,0-0.8,0.2-1.1,0.5s-0.9,1.1-1.5,1.9
c-0.6,0.7-0.7,1.5,0.4,2.3s4.6,3,4.4,0.9c-0.1-1.1,0.2-1.9,0.5-1.8c0.2,0,0.5-1.1-0.1-2.1c0.5-0.5,3.7-2.7,4.8-3.6
c1.1-0.9,4.5-3.7,5-5.1c0.3-0.2,1.1-0.4,1.6-1.4c0.5-0.9,0.9-1.5,1.1-1.9c0.3-0.9,1.5-2.7,1.7-3.3c0.3-0.1,0.7-0.4,0.8-0.9
c0-0.2,0.2-1.6,0.4-2.1c0.5,0.5,3.6,2.5,4.9,3c1,0.4,3.3,1.9,3.4,2.2c0,0.8-0.2,2,0.4,2.6c0.3,0.3,1.5,1,2.5-0.4
c1.1-1.4,2.4-1,3.2-1.1c0.9-0.1,2.9-1.6,2.4-2.7C47.2,38.9,45.1,38.8,44.4,38.9z"/>
</svg>