<svg id="Layer_1" data-name="Layer 1" xmlns="http://www.w3.org/2000/svg" viewBox="0 0 62 62"><defs><style>.cls-1{fill:#e31b23;}</style></defs><title>Player1</title><metadata><?xpacket begin="﻿" id="W5M0MpCehiHzreSzNTczkc9d"?>
<x:xmpmeta xmlns:x="adobe:ns:meta/" x:xmptk="Adobe XMP Core 5.6-c145 79.163499, 2018/08/13-16:40:22        ">
   <rdf:RDF xmlns:rdf="http://www.w3.org/1999/02/22-rdf-syntax-ns#">
      <rdf:Description rdf:about=""
            xmlns:dc="http://purl.org/dc/elements/1.1/">
         <dc:title>
            <rdf:Alt>
               <rdf:li xml:lang="x-default">Player1</rdf:li>
            </rdf:Alt>
         </dc:title>
      </rdf:Description>
   </rdf:RDF>
</x:xmpmeta>
                                                                                                    
                                                                                                    
                                                                                                    
                                                                                                    
                                                                                                    
                                                                                                    
                                                                                                    
                                                                                                    
                                                                                                    
                                                                                                    
                                                                                                    
                                                                                                    
                                                                                                    
                                                                                                    
                                                                                                    
                                                                                                    
                                                                                                    
                                                                                                    
                                                                                                    
                                                                                                    
                           
<?xpacket end="w"?></metadata>
<path class="cls-1" d="M30.36,51.15a4.2,4.2,0,1,0,4.2,4.2A4.1,4.1,0,0,0,30.36,51.15Zm16.5-16.2c-1-.8-1.6-1.4-1.9-1.2a2.21,2.21,0,0,1-1.4-.6,0.93,0.93,0,0,0-1.5.2A1.74,1.74,0,0,0,42,35l0.3,0.5a0.6,0.6,0,0,1-.7.5,1.22,1.22,0,0,0-1.4.6c-0.2.5-.8-0.3-1-0.5l-0.1-.2s0.3,0.1,0-.4a20.36,20.36,0,0,1-.9-2.2v-0.5a3.39,3.39,0,0,0,.6-0.6V32a0.78,0.78,0,0,0,.4-0.3v-0.3a0.78,0.78,0,0,0,.4-0.3v-0.4s0.2,0,.2-0.1,0.2-.2,0-0.6a7.63,7.63,0,0,0-1.3-1.7c-0.2-.2-0.3-0.7-0.2-2.1s0.4-4.3.1-5-0.9-2-.9-2,0.2-.1.1-0.2-1.7-2.2-2.3-2.9-1.5-2.4-2-3.1-1.2-.9-2.2-1.4-2.1-1.2-3.2-1.7l-1.2-.4a1.49,1.49,0,0,1-.6-0.6,0.62,0.62,0,0,0-.3-0.4h-0.4c-0.2,0-.2-0.1-0.2-0.1l-0.1-.7a1.38,1.38,0,0,0,.2-1,1.83,1.83,0,0,0-.4-1l-0.4-.8a2,2,0,0,0-.6-0.9c-0.1-.2.3-0.6-0.4-1s-2.4-.9-3.1-0.4a4.56,4.56,0,0,0-1.9,2,2.27,2.27,0,0,0-.1,1.1s-0.6-1-.8-1.3a0.9,0.9,0,0,0-.6-0.5l-0.1.1a0.35,0.35,0,0,0-.2-0.1h-0.2a0.31,0.31,0,0,1-.2-0.1,0.6,0.6,0,0,0-.4.1c-0.1.1-.4,0.5-0.4,0.5h-0.3a0.34,0.34,0,0,0-.4.2,0.47,0.47,0,0,0,.3.5,1.41,1.41,0,0,1,.8.6,1.94,1.94,0,0,0,1.1.9,6.75,6.75,0,0,1,1.7,1.7c0.4,0.7.6,1.8,0.9,2.2a8.43,8.43,0,0,1,.7.8s0.1,2.6.1,3.4-0.6,1.8-.4,2.9a43.41,43.41,0,0,0,.7,5.8,22.08,22.08,0,0,1,.4,4.2c0.1,2.1.5,3.3,0.3,4s-0.6,1.1-.4,1.4a1.2,1.2,0,0,1-.1,1.5,2.36,2.36,0,0,0-.3,2,13.79,13.79,0,0,1-.2,2.2v0.5h0.2a5.79,5.79,0,0,1,.1,1.6c-0.2.6-.7,1.2-0.3,2a5,5,0,0,1,.6,2.6c-0.1.9-.2,1.2-0.3,2.3s0.1,4.3.1,4.8-0.4,0-.5-0.1-0.1.3-.7,0.4-1.5-.6-2.1-0.6-1.4-.1-1.6.5a2.37,2.37,0,0,0,.6,2.3,11,11,0,0,0,2.8,1.7,9.72,9.72,0,0,1,2.5,1.5,2.18,2.18,0,0,0,1.7.4,1.33,1.33,0,0,0,.8-1.5,8.33,8.33,0,0,1-.3-2.9c0.1-1.2-.2-3,0.5-4a6.38,6.38,0,0,0,.7-3.9,10.6,10.6,0,0,1-.2-2.7,14.07,14.07,0,0,1,1.5-3.2l0.6-.6a1,1,0,0,0,1-.2c0.3-.3,0-1.8.4-2.4s1.8-1.9,3-1.1a10.54,10.54,0,0,0,2.5,1.6,2.73,2.73,0,0,1,1.1,1l0.2-.1a11.74,11.74,0,0,0,2.4,2.4,18.29,18.29,0,0,1,2.1,1.6,1.61,1.61,0,0,0,1.5.5,2.06,2.06,0,0,0,1.3-1,1.18,1.18,0,0,0,.6-0.5,3.14,3.14,0,0,1,.4-1.2c0.5-.7,1.5-2.3,2.3-2.6s1.5-.2,1.5-0.5C47.26,36.85,47.86,35.75,46.86,34.95Z"/></svg>