<?xml version="1.0" encoding="utf-8"?>
<!-- Generator: Adobe Illustrator 19.2.1, SVG Export Plug-In . SVG Version: 6.00 Build 0)  -->
<svg version="1.1" id="Layer_1" xmlns="http://www.w3.org/2000/svg" xmlns:xlink="http://www.w3.org/1999/xlink" x="0px" y="0px"
	 viewBox="0 0 62 62" style="enable-background:new 0 0 62 62;" xml:space="preserve">
<metadata><?xpacket begin="﻿" id="W5M0MpCehiHzreSzNTczkc9d"?>
<x:xmpmeta xmlns:x="adobe:ns:meta/" x:xmptk="Adobe XMP Core 5.6-c145 79.163499, 2018/08/13-16:40:22        ">
   <rdf:RDF xmlns:rdf="http://www.w3.org/1999/02/22-rdf-syntax-ns#">
      <rdf:Description rdf:about=""/>
   </rdf:RDF>
</x:xmpmeta>
                                                                                                    
                                                                                                    
                                                                                                    
                                                                                                    
                                                                                                    
                                                                                                    
                                                                                                    
                                                                                                    
                                                                                                    
                                                                                                    
                                                                                                    
                                                                                                    
                                                                                                    
                                                                                                    
                                                                                                    
                                                                                                    
                                                                                                    
                                                                                                    
                                                                                                    
                                                                                                    
                           
<?xpacket end="w"?></metadata>
<style type="text/css">
	.st0{fill:#e31b23;}
</style>
<path class="st0" d="M30.7,13.2c2.3,0,4.2-1.9,4.2-4.2c0-2.3-1.9-4.2-4.2-4.2c-2.3,0-4.2,1.9-4.2,4.2C26.4,11.3,28.3,13.2,30.7,13.2
	z M47.9,13.4c0-0.2-0.3-1.5-0.7-2.1s-2-1.2-3.1-1.3c-1.1-0.1-1.4,0.6-1.4,0.6s0,0-0.4,0.2s-0.7,0.6-0.9,1c-0.2,0.3-0.1,0.7-0.3,0.8
	C41,12.7,41,12.9,41,13.1c0.1,0.2-0.1,0.4-0.5,0.6c-0.4,0.2-0.1,0.8-0.1,0.8s-0.2,0.2-0.4,0.4c-0.2,0.2,0,0.6,0,0.6
	s-0.2,0.2-0.1,0.3c0,0.1,0.1,0.6-0.1,1s0.3,0.9,0.5,1.1c0.3,0.2-0.5,1.1-0.5,1.1s-1.1,0.1-2,0.1c-1,0-1.5,0.4-1.5,0.4
	c-1,0.3-2.1,1.2-3.1,2s-2.1,1.2-2.1,1.2s-1,0-1.8-0.1c-0.7-0.1-2-0.4-2.7-0.5s-1.4-0.3-1.8-0.7c-0.4-0.4-1-0.6-1-0.6s0,0-0.3-0.1
	s-0.7-0.7-0.8-1.1c-0.1-0.4-0.7-1.2-1.1-1.4c-0.4-0.3-0.5-1-0.6-1.2s-0.2-0.1-0.4,0.1c-0.2,0.2-0.2,0.5-0.2,0.5s-0.2-0.2-0.4-0.4
	c-0.2-0.2-0.3-0.1-0.5,0.1c-0.2,0.3,0.2,0.7,0.2,0.7s0,0-0.1,0.2c-0.1,0.1,0,0.4,0,0.4s-0.1,0.1-0.3,0.2c-0.2,0.1-0.1,0.3-0.1,0.3
	s0,0-0.2,0.1s0,0.7,0,0.9c0.1,0.2,0.6,0.8,0.9,0.9c0.2,0.2,0.6,0.5,0.6,0.5s0,0-0.3,0.1c-0.3,0-0.4,0.1-0.5,0.2s0,0.3,0,0.4
	c0.1,0.1,0.4,0,0.4,0s0,0.1,0,0.3s0.1,0.2,0.4,0.2s0.8,0,0.8,0s0.5,0.2,0.8,0.3c0.3,0,0.7,0,0.7,0s1.4,1.6,2.1,2.3
	c0.7,0.7,2,1.3,2,1.3s-1.3,1.2-2.1,2.9c-0.8,1.6-2.1,2.2-3.7,3s-4,3.4-4.5,4.1s-0.3,0.7-0.3,0.7s-1.6,2.1-2.1,3s0.9,3,0.9,3
	s-0.2,0.2,0.1,0.8c0.2,0.7,2.3,5.2,3,6.2s1.9,3.3,1.9,3.3s-0.5,0.4-1.2,1s-0.2,0.9-0.5,1.2c-0.4,0.3-1.2,0-1.4,0.5
	c-0.3,0.4,0.1,0.5,1.3,0.5c1.2,0,3.1-0.2,4.5-0.1s2,0,2.2-0.6s-0.5-1.7-0.7-2.2s-0.7-0.3-0.7-0.3s-2.3-5.4-2.4-6.9
	c-0.2-1.5-2.3-4.6-2.3-4.6l1.9-0.8c0,0,0,0,0.8,0.4s1.2,0.8,2.1,0.5s3.4-2.3,3.4-2.3s-0.1,0.2,0.7,0.8c0.8,0.6,0.9,0.3,0.9,0.3
	s0.2,1.6,0.5,2.8c0.3,1.2,2.9,2.6,2.9,2.6s-0.2,0.3-0.1,0.3c0.2,0,1.6,0.6,2.4,1.3c0.7,0.7,2.9,2.2,4.2,3c1.3,0.9,1.9,2.6,1.9,2.6
	s-0.4,0.5-0.1,1s0.3,0.2,0.1,0.9c-0.2,0.7,0,0.3,0.5,0.5c0.4,0.2,0.1,0.4,0.1,0.9s1.2,0.3,2,0.3c0.9,0,1.3-0.3,1.4-0.9
	c0.1-0.5,0.2-2,0.6-3.3c0.4-1.3-0.4-1.6-1.4-2s-1.5-0.4-1.5-0.4s0,0-1.3-1.2s-2.1-2.9-3.4-4.6S34,43.5,34,43.5s0,0-0.1-0.6
	s0.1-2.3,0.1-2.3s0,0,0.3-0.4s0.1-0.5-0.2-1.5c-0.3-1-0.1-1.6-0.1-1.6s0.7,0,0.8-0.9c0.1-1,0.4-0.6,1-1.5s0-1.1,0.3-2.1
	c0.4-1,0.7-1.5,1.3-1.4c0.6,0.1,0.7,0.2,1.1-0.2c0.4-0.5,0.8-1.7,2-2.3c1.2-0.6,1.5-0.6,2.4-1.6c0.9-0.9,1.6-2.3,1.9-3.8
	c0.4-1.5-0.2-2.4-0.2-2.4v-0.3c0,0,0.4-1.5,1.9-2.3c0-0.4,0.2-0.4,0.9-1.1C48.1,16.1,47.9,13.6,47.9,13.4z"/>
</svg>
